<svg width="30" height="30" viewBox="0 0 30 30" fill="none" xmlns="http://www.w3.org/2000/svg">
<path d="M15 10.9168C16.5284 9.35516 18.5184 8.33349 20.8334 8.33349C23.2645 8.33349 25.5961 9.29926 27.3152 11.0183C29.0343 12.7374 30 15.069 30 17.5002V30.0002H26.6667V17.5002C26.6667 15.9531 26.0521 14.4693 24.9582 13.3754C23.8642 12.2814 22.3805 11.6668 20.8334 11.6668C19.2863 11.6668 17.8025 12.2814 16.7086 13.3754C15.6146 14.4693 15 15.9531 15 17.5002V30.0002H11.6667V9.16683H15V10.9168ZM3.33337 5.8335C2.67033 5.8335 2.03445 5.5701 1.56561 5.10126C1.09677 4.63242 0.833374 3.99654 0.833374 3.3335C0.833374 2.67045 1.09677 2.03457 1.56561 1.56573C2.03445 1.09689 2.67033 0.833496 3.33337 0.833496C3.99641 0.833496 4.6323 1.09689 5.10114 1.56573C5.56998 2.03457 5.83337 2.67045 5.83337 3.3335C5.83337 3.99654 5.56998 4.63242 5.10114 5.10126C4.6323 5.5701 3.99641 5.8335 3.33337 5.8335ZM1.66671 9.16683H5.00004V30.0002H1.66671V9.16683Z" fill="#B5964D"/>
</svg>
