<svg width="34" height="34" viewBox="0 0 34 34" fill="none" xmlns="http://www.w3.org/2000/svg">
<path d="M16.9999 12.0002C15.6738 12.0002 14.4021 12.5269 13.4644 13.4646C12.5267 14.4023 11.9999 15.6741 11.9999 17.0002C11.9999 18.3262 12.5267 19.598 13.4644 20.5357C14.4021 21.4734 15.6738 22.0002 16.9999 22.0002C18.326 22.0002 19.5978 21.4734 20.5355 20.5357C21.4731 19.598 21.9999 18.3262 21.9999 17.0002C21.9999 15.6741 21.4731 14.4023 20.5355 13.4646C19.5978 12.5269 18.326 12.0002 16.9999 12.0002ZM16.9999 8.66683C19.2101 8.66683 21.3297 9.5448 22.8925 11.1076C24.4553 12.6704 25.3333 14.79 25.3333 17.0002C25.3333 19.2103 24.4553 21.3299 22.8925 22.8927C21.3297 24.4555 19.2101 25.3335 16.9999 25.3335C14.7898 25.3335 12.6702 24.4555 11.1074 22.8927C9.54456 21.3299 8.66659 19.2103 8.66659 17.0002C8.66659 14.79 9.54456 12.6704 11.1074 11.1076C12.6702 9.5448 14.7898 8.66683 16.9999 8.66683ZM27.8333 8.25016C27.8333 8.8027 27.6138 9.3326 27.2231 9.7233C26.8324 10.114 26.3025 10.3335 25.7499 10.3335C25.1974 10.3335 24.6675 10.114 24.2768 9.7233C23.8861 9.3326 23.6666 8.8027 23.6666 8.25016C23.6666 7.69763 23.8861 7.16772 24.2768 6.77702C24.6675 6.38632 25.1974 6.16683 25.7499 6.16683C26.3025 6.16683 26.8324 6.38632 27.2231 6.77702C27.6138 7.16772 27.8333 7.69763 27.8333 8.25016ZM16.9999 3.66683C12.8766 3.66683 12.2033 3.6785 10.2849 3.7635C8.97825 3.82516 8.10159 4.00016 7.28825 4.31683C6.60761 4.56673 5.99227 4.96727 5.48825 5.4885C4.9666 5.99249 4.56551 6.6078 4.31492 7.2885C3.99825 8.10516 3.82325 8.98016 3.76325 10.2852C3.67659 12.1252 3.66659 12.7685 3.66659 17.0002C3.66659 21.1235 3.67825 21.7968 3.76325 23.7152C3.82492 25.0202 3.99992 25.8985 4.31492 26.7102C4.59825 27.4352 4.93159 27.9568 5.48492 28.5102C6.04659 29.0702 6.56825 29.4052 7.28492 29.6818C8.10825 30.0002 8.98492 30.1768 10.2849 30.2368C12.1249 30.3235 12.7683 30.3335 16.9999 30.3335C21.1233 30.3335 21.7966 30.3218 23.7149 30.2368C25.0183 30.1752 25.8966 30.0002 26.7099 29.6852C27.3895 29.434 28.0045 29.0343 28.5099 28.5152C29.0716 27.9535 29.4066 27.4318 29.6833 26.7152C29.9999 25.8935 30.1766 25.0152 30.2366 23.7152C30.3233 21.8752 30.3333 21.2318 30.3333 17.0002C30.3333 12.8768 30.3216 12.2035 30.2366 10.2852C30.1749 8.98183 29.9999 8.10183 29.6833 7.2885C29.4321 6.6085 29.0317 5.99343 28.5116 5.4885C28.0078 4.96657 27.3924 4.56544 26.7116 4.31516C25.8949 3.9985 25.0183 3.8235 23.7149 3.7635C21.8749 3.67683 21.2316 3.66683 16.9999 3.66683ZM16.9999 0.333496C21.5283 0.333496 22.0933 0.350163 23.8699 0.433496C25.6449 0.516829 26.8533 0.795163 27.9166 1.2085C29.0166 1.63183 29.9433 2.20516 30.8699 3.13016C31.7174 3.96332 32.3732 4.97114 32.7916 6.0835C33.2033 7.14516 33.4833 8.35516 33.5666 10.1302C33.6449 11.9068 33.6666 12.4718 33.6666 17.0002C33.6666 21.5285 33.6499 22.0935 33.5666 23.8702C33.4833 25.6452 33.2033 26.8535 32.7916 27.9168C32.3744 29.0298 31.7185 30.0379 30.8699 30.8702C30.0365 31.7174 29.0288 32.3731 27.9166 32.7918C26.8549 33.2035 25.6449 33.4835 23.8699 33.5668C22.0933 33.6452 21.5283 33.6668 16.9999 33.6668C12.4716 33.6668 11.9066 33.6502 10.1299 33.5668C8.35492 33.4835 7.14659 33.2035 6.08325 32.7918C4.97046 32.3743 3.96246 31.7184 3.12992 30.8702C2.28226 30.0371 1.62647 29.0293 1.20825 27.9168C0.794919 26.8552 0.516585 25.6452 0.433252 23.8702C0.354919 22.0935 0.333252 21.5285 0.333252 17.0002C0.333252 12.4718 0.349919 11.9068 0.433252 10.1302C0.516585 8.3535 0.794919 7.14683 1.20825 6.0835C1.62531 4.97046 2.28126 3.96236 3.12992 3.13016C3.9627 2.28221 4.97063 1.62638 6.08325 1.2085C7.14659 0.795163 8.35325 0.516829 10.1299 0.433496C11.9066 0.355163 12.4716 0.333496 16.9999 0.333496Z" fill="#B5964D"/>
</svg>
