<svg width="34" height="24" viewBox="0 0 34 24" fill="none" xmlns="http://www.w3.org/2000/svg">
<path d="M17 8.95667C19.9433 4.31667 22.525 2 24.7467 2C28.08 2 30.185 5.68833 31.4133 10.695C32.5867 15.4767 32.2467 22 28.08 22C26.2233 22 23.6667 19.3917 21.1667 15.9133C19.5759 13.7215 18.1816 11.3936 17 8.95667ZM17 8.95667C14.0567 4.31667 11.475 2 9.25332 2C5.91999 2 3.81499 5.68833 2.58665 10.695C1.41332 15.4767 1.75332 22 5.91999 22C7.77666 22 10.3333 19.3917 12.8333 15.9133C14.5 13.595 15.8883 11.275 17 8.95667Z" stroke="#B5964D" stroke-width="2.66667" stroke-linecap="round" stroke-linejoin="round"/>
</svg>
