<svg width="35" height="28" viewBox="0 0 35 28" fill="none" xmlns="http://www.w3.org/2000/svg">
<path d="M34.9368 3.42655C33.6644 3.98937 32.315 4.359 30.9334 4.52321C32.3897 3.65227 33.4796 2.28157 34.0001 0.666544C32.6334 1.47988 31.1351 2.04988 29.5734 2.35821C28.5244 1.23584 27.134 0.491483 25.6183 0.240852C24.1027 -0.00977851 22.5467 0.247363 21.1922 0.9723C19.8377 1.69724 18.7607 2.84935 18.1286 4.24953C17.4965 5.64971 17.3447 7.21951 17.6968 8.71488C14.9253 8.57597 12.214 7.85575 9.7389 6.60099C7.26382 5.34622 5.0803 3.58496 3.33009 1.43154C2.71057 2.49563 2.38501 3.70526 2.38675 4.93654C2.38675 7.35321 3.61675 9.48821 5.48675 10.7382C4.3801 10.7034 3.29781 10.4045 2.33009 9.86655V9.95321C2.33042 11.5627 2.88737 13.1226 3.9065 14.3683C4.92563 15.6141 6.34422 16.469 7.92175 16.7882C6.89445 17.0666 5.81727 17.1076 4.77175 16.9082C5.21653 18.2936 6.08343 19.5052 7.25107 20.3734C8.41872 21.2416 9.82864 21.7229 11.2834 21.7499C9.83756 22.8854 8.18205 23.7249 6.41156 24.2202C4.64106 24.7155 2.7903 24.857 0.965088 24.6365C4.15125 26.6856 7.86025 27.7734 11.6484 27.7699C24.4701 27.7699 31.4818 17.1482 31.4818 7.93655C31.4818 7.63655 31.4734 7.33321 31.4601 7.03655C32.8249 6.05016 34.0028 4.82824 34.9384 3.42821L34.9368 3.42655Z" fill="#B5964D"/>
</svg>
