<svg width="34" height="28" viewBox="0 0 34 28" fill="none" xmlns="http://www.w3.org/2000/svg">
<path d="M32.905 4.82984C33.6667 7.79984 33.6667 13.9998 33.6667 13.9998C33.6667 13.9998 33.6667 20.1998 32.905 23.1698C32.4817 24.8115 31.2434 26.1032 29.675 26.5398C26.8267 27.3332 17 27.3332 17 27.3332C17 27.3332 7.17837 27.3332 4.32504 26.5398C2.75004 26.0965 1.51337 24.8065 1.09504 23.1698C0.333374 20.1998 0.333374 13.9998 0.333374 13.9998C0.333374 13.9998 0.333374 7.79984 1.09504 4.82984C1.51837 3.18817 2.75671 1.8965 4.32504 1.45984C7.17837 0.666504 17 0.666504 17 0.666504C17 0.666504 26.8267 0.666504 29.675 1.45984C31.25 1.90317 32.4867 3.19317 32.905 4.82984ZM13.6667 19.8332L23.6667 13.9998L13.6667 8.1665V19.8332Z" fill="#B5964D"/>
</svg>
